name C:\Users\u0101727\Documents\MyRepositories\upper-imu-dc\Results\main_mocap_tracking\Case_1\kinematics.mot
datacolumns 15
datarows 15
range 0.50000000 0.64000000
endheader 
time	ground_thorax_rot_x	ground_thorax_rot_y	ground_thorax_rot_z	clav_prot	clav_elev	scapula_abduction	scapula_elevation	scapula_upward_rot	scapula_winging	plane_elv	shoulder_elv	axial_rot	elbow_flexion	pro_sup	
          0.50000000	          2.33586447	         -4.78570031	         -6.51977569	        -22.80872626	         -6.38945564	        -12.57683643	         -5.53201462	         12.81047493	          6.20598027	        -26.26156197	         11.98986978	         42.93832445	          0.33714156	         34.28535987	
          0.51000000	          2.25916567	         -4.81247151	         -6.89944844	        -22.82715198	         -6.29139635	        -12.65129900	         -5.48759792	         12.65831960	          6.18908038	        -25.87233268	         12.15556786	         42.51929317	          0.24909226	         34.29477659	
          0.52000000	          2.17771601	         -4.83193946	         -7.31020263	        -22.82492938	         -6.23723797	        -12.70731373	         -5.42402646	         12.57537793	          6.18804693	        -25.45125937	         12.28637046	         42.08214803	          0.19865556	         34.30013402	
          0.53000000	          2.09509408	         -4.84482353	         -7.73048954	        -22.82318108	         -6.20519231	        -12.74337404	         -5.38468702	         12.51988887	          6.18902985	        -24.99072323	         12.40387213	         41.59253598	          0.16654081	         34.30367042	
          0.54000000	          2.01429775	         -4.85199814	         -8.14456941	        -22.82004007	         -6.18869721	        -12.76809253	         -5.35970744	         12.47381719	          6.19365673	        -24.47852247	         12.51710692	         41.01819464	          0.14375186	         34.30623464	
          0.55000000	          1.93745569	         -4.85461972	         -8.54137970	        -22.81449817	         -6.18198175	        -12.78733666	         -5.34169956	         12.42616278	          6.20228665	        -23.90640303	         12.63076014	         40.34125228	          0.12537272	         34.30824662	
          0.56000000	          1.86598359	         -4.85401092	         -8.91347886	        -22.80621592	         -6.18152129	        -12.80447356	         -5.32647486	         12.37140129	          6.21487712	        -23.27157153	         12.74670827	         39.56185695	          0.10871571	         34.30996239	
          0.57000000	          1.80076701	         -4.85149194	         -9.25615480	        -22.79551461	         -6.18551337	        -12.82114979	         -5.31233866	         12.30831362	          6.23104336	        -22.57647592	         12.86444650	         38.69669871	          0.09255170	         34.31152398	
          0.58000000	          1.74231271	         -4.84824388	         -9.56670300	        -22.78320282	         -6.19300795	        -12.83784903	         -5.29911415	         12.23884695	          6.24998818	        -21.82755221	         12.98139458	         37.77540944	          0.07647902	         34.31300898	
          0.59000000	          1.69085566	         -4.84520997	         -9.84385940	        -22.77025513	         -6.20348503	        -12.85427487	         -5.28741801	         12.16665759	          6.27067665	        -21.03320754	         13.09386638	         36.83517159	          0.06053165	         34.31445910	
          0.60000000	          1.64643606	         -4.84303269	        -10.08736891	        -22.75751620	         -6.21695933	        -12.86975825	         -5.27829334	         12.09546890	          6.29225631	        -20.20151202	         13.19870052	         35.91322394	          0.04495951	         34.31588408	
          0.61000000	          1.60898861	         -4.84203459	        -10.29767054	        -22.74561159	         -6.23366650	        -12.88362239	         -5.27275497	         12.02828489	          6.31412341	        -19.33884177	         13.29404928	         35.03987626	          0.02996953	         34.31728271	
          0.62000000	          1.57842767	         -4.84225134	        -10.47568724	        -22.73509612	         -6.25343389	        -12.89551618	         -5.27133978	         11.96749896	          6.33566632	        -18.44951013	         13.37917472	         34.23402358	          0.01552480	         34.31867479	
          0.63000000	          1.55467680	         -4.84351921	        -10.62270712	        -22.72661412	         -6.27568380	        -12.90571455	         -5.27410387	         11.91484314	          6.35628595	        -17.53530600	         13.45462030	         33.50028187	          0.00143515	         34.32009546	
          0.64000000	          1.53765295	         -4.84559809	        -10.74032266	        -22.72086886	         -6.29985250	        -12.91513676	         -5.28086360	         11.87108816	          6.37562333	        -16.59503358	         13.52273382	         32.82773754	         -0.01237916	         34.32155811	
